<?xml version="1.0" standalone="no"?><!DOCTYPE svg PUBLIC "-//W3C//DTD SVG 1.1//EN" "http://www.w3.org/Graphics/SVG/1.1/DTD/svg11.dtd"><svg t="1701133820109" class="icon" viewBox="0 0 1557 1024" version="1.1" xmlns="http://www.w3.org/2000/svg" p-id="7278" xmlns:xlink="http://www.w3.org/1999/xlink" width="304.1015625" height="200"><path d="M0 163.639706C0 73.263923 72.984609 0 163.628802 0L1392.851198 0C1483.22089 0 1556.48 73.366323 1556.48 163.639706L1556.48 834.103706C1556.48 924.479488 1483.495391 997.743411 1392.851198 997.743411L163.628802 997.743411C73.25911 997.743411 0 924.377088 0 834.103706L0 163.639706ZM342.697984 239.69792 342.697984 838.104678 420.327424 838.104678 420.327424 564.044595 688.35328 564.044595 688.35328 496.995942 420.327424 496.995942 420.327424 306.746163 725.942272 306.746163 725.942272 239.69792 342.697984 239.69792ZM912.252928 590.863565 1011.12832 311.774822 1012.762624 311.774822 1110.003712 590.863565 912.252928 590.863565ZM970.27072 239.69792 743.102464 838.104678 822.366208 838.104678 887.738368 657.912218 1134.518272 657.912218 1198.256128 838.104678 1284.057088 838.104678 1056.07168 239.69792 970.27072 239.69792Z" fill="#bd34fe" p-id="7279"></path></svg>