<?xml version="1.0" standalone="no"?><!DOCTYPE svg PUBLIC "-//W3C//DTD SVG 1.1//EN" "http://www.w3.org/Graphics/SVG/1.1/DTD/svg11.dtd"><svg t="1701148785430" class="icon" viewBox="0 0 1024 1024" version="1.1" xmlns="http://www.w3.org/2000/svg" p-id="35186" xmlns:xlink="http://www.w3.org/1999/xlink" width="200" height="200"><path d="M1002.24 468.48L556.8 22.72c-25.6-25.6-67.2-25.6-92.8 0l-92.8 92.8 117.44 117.44c27.2-9.28 58.56-2.88 80.32 18.56 21.76 21.76 27.84 53.44 18.56 80.64l112.96 112.96c27.52-9.28 58.88-3.2 80.64 18.56 30.4 30.4 30.4 80 0 110.72-30.72 30.72-80 30.72-110.72 0-23.04-23.04-28.8-56.64-16.96-85.12l-105.6-105.6v277.44c7.36 3.84 14.4 8.64 20.8 14.72 30.4 30.4 30.4 80 0 110.72-30.4 30.4-80 30.4-110.72 0-30.4-30.72-30.4-80 0-110.72 7.68-7.68 16.32-13.12 25.6-16.96v-280c-9.28-3.84-17.92-9.6-25.6-16.96-23.04-23.04-28.8-56.96-16.96-85.44l-115.84-115.84-305.6 305.6c-25.6 25.6-25.6 67.2 0 92.8L465.92 1004.8c25.6 25.6 67.2 25.6 92.8 0l443.52-443.52c25.6-25.6 25.6-67.2 0-92.8" fill="#F05133" p-id="35187"></path></svg>