<?xml version="1.0" standalone="no"?><!DOCTYPE svg PUBLIC "-//W3C//DTD SVG 1.1//EN" "http://www.w3.org/Graphics/SVG/1.1/DTD/svg11.dtd"><svg t="1701148743773" class="icon" viewBox="0 0 1024 1024" version="1.1" xmlns="http://www.w3.org/2000/svg" p-id="33106" xmlns:xlink="http://www.w3.org/1999/xlink" width="200" height="200"><path d="M487.707489 1017.577532a48.802625 48.802625 0 0 0 24.187266 6.421398 47.518345 47.518345 0 0 0 24.187266-6.421398l400.695233-231.59842a50.514997 50.514997 0 0 0 17.765868-17.765868 51.157137 51.157137 0 0 0 6.421398-24.401312V280.401045a51.157137 51.157137 0 0 0-6.421398-24.401313 50.514997 50.514997 0 0 0-17.765868-17.765867L536.082021 6.421398A47.518345 47.518345 0 0 0 512.536895 0a48.802625 48.802625 0 0 0-24.187266 6.421398L87.226302 238.233865A50.514997 50.514997 0 0 0 69.460435 256.855919a49.016671 49.016671 0 0 0-6.421398 23.545126v463.624933a48.802625 48.802625 0 0 0 24.187265 42.80932l400.481187 230.742234z" fill="#ACDD6E" p-id="33107"></path><path d="M507.82787 774.848688a15.839448 15.839448 0 0 1-7.705678-1.926419l-24.401312-14.555169c-3.852839-1.926419-1.926419-2.782606 0-3.210699a38.528388 38.528388 0 0 0 11.130423-4.923071 1.712373 1.712373 0 0 1 1.712373 0l18.8361 11.130423a1.926419 1.926419 0 0 0 2.140466 0l73.417984-42.80932a2.568559 2.568559 0 0 0 1.070233-2.140466v-83.69222a2.354513 2.354513 0 0 0-1.070233-1.92642l-73.417984-42.809319a1.926419 1.926419 0 0 0-2.140466 0l-73.417983 42.809319a2.568559 2.568559 0 0 0-1.070233 1.92642v84.548406a2.568559 2.568559 0 0 0 1.070233 2.140466l20.12038 11.34447c10.916377 5.565212 17.551821 0 17.551821-7.277584v-83.264127a2.354513 2.354513 0 0 1 2.354513-2.354513h9.204004a2.354513 2.354513 0 0 1 2.354512 2.354513v83.264127a21.40466 21.40466 0 0 1-21.40466 22.902986 32.535083 32.535083 0 0 1-16.909681-4.494979l-19.264194-11.130423a15.197309 15.197309 0 0 1-7.705677-13.270889v-85.61864A15.197309 15.197309 0 0 1 426.918255 620.735137l73.417984-42.80932a16.267542 16.267542 0 0 1 15.411355 0l73.203937 42.80932a14.769215 14.769215 0 0 1 7.705677 13.270889v85.61864a14.769215 14.769215 0 0 1-7.705677 13.270889l-73.203937 42.80932a19.264194 19.264194 0 0 1-7.705678 1.712373z" fill="#539E43" p-id="33108"></path><path d="M530.302762 716.84206c-32.10699 0-38.742434-14.769215-38.742434-27.183918a2.354513 2.354513 0 0 1 2.354513-2.140466h9.41805a1.926419 1.926419 0 0 1 2.140466 1.712373c1.498326 9.632097 5.565212 14.555169 25.043452 14.555169 15.411355 0 21.40466-3.638792 21.40466-11.772563 0-4.709025-1.712373-8.347817-25.899639-10.70233-19.906334-1.926419-32.535083-6.421398-32.535083-21.40466s12.628749-23.759172 33.605316-23.759173 34.889596 8.133771 36.387922 25.685592a2.568559 2.568559 0 0 1 0 1.712373 2.354513 2.354513 0 0 1-1.498326 0h-9.632097a2.140466 2.140466 0 0 1-1.926419-1.498326c-2.140466-10.06019-7.919724-13.484936-22.902986-13.484936s-19.050147 5.779258-19.050148 10.274237 2.354513 7.063538 25.257499 9.846143 33.177223 7.277584 33.177223 22.902986-13.270889 25.257499-36.601969 25.257499z" fill="#539E43" p-id="33109"></path><path d="M280.296335 444.36074a9.204004 9.204004 0 0 0-4.709025-8.133771l-77.912962-44.735739a14.127076 14.127076 0 0 0-4.280932-1.28428 10.06019 10.06019 0 0 0-4.280932 1.28428l-78.555102 44.735739a9.632097 9.632097 0 0 0-4.709025 8.133771v120.294188a4.923072 4.923072 0 0 0 2.354512 4.066886 4.280932 4.280932 0 0 0 4.494979 0l46.662158-26.541779a9.632097 9.632097 0 0 0 4.709026-7.063537v-57.150442a9.632097 9.632097 0 0 1 4.709025-7.063538l19.692287-11.34447a9.846144 9.846144 0 0 1 4.923072-1.284279 8.347817 8.347817 0 0 1 4.494978 1.284279l19.692287 11.34447a9.204004 9.204004 0 0 1 4.709025 8.133771V535.116498a9.632097 9.632097 0 0 0 4.709026 7.919724l46.448112 26.541778a4.709025 4.709025 0 0 0 4.709025 0 4.923072 4.923072 0 0 0 2.354512-4.066885zM701.325995 304.58831L654.877883 278.260579a4.709025 4.709025 0 0 0-4.709025 0 4.494979 4.494979 0 0 0-2.354513 3.852839v119.223955a4.066885 4.066885 0 0 1-1.712372 2.996653 4.066885 4.066885 0 0 1-3.210699 0l-19.478241-11.130424a9.204004 9.204004 0 0 0-9.41805 0l-77.912962 45.377879a9.41805 9.41805 0 0 0-4.709026 8.133771v89.685525a8.775911 8.775911 0 0 0 4.709026 7.919724l77.912962 44.949786a9.204004 9.204004 0 0 0 9.41805 0l77.912962-44.949786a9.204004 9.204004 0 0 0 4.709025-7.919724V312.936128a10.06019 10.06019 0 0 0-4.709025-8.347818z" fill="#333333" p-id="33110"></path><path d="M647.600299 506.862347a1.926419 1.926419 0 0 1 0 1.926419l-28.040105 15.411355h-2.354512l-26.541779-15.411355s-1.070233-1.28428-1.070233-1.926419v-30.822711s0-1.712373 1.070233-1.926419l26.541779-15.411355H619.560194l26.755825 15.411355a2.354513 2.354513 0 0 1 0 1.926419z" fill="#ACDD6E" p-id="33111"></path><path d="M914.088315 475.397496a9.632097 9.632097 0 0 0 4.494978-8.13377v-21.40466a10.274237 10.274237 0 0 0-4.494978-8.133771l-77.484869-44.735739a10.916377 10.916377 0 0 0-4.709025-1.070233 12.628749 12.628749 0 0 0-4.709026 1.070233l-77.698915 44.949786a9.41805 9.41805 0 0 0-4.923072 8.13377V535.116498a8.989957 8.989957 0 0 0 4.923072 7.919724l77.270822 44.093599a8.989957 8.989957 0 0 0 9.204004 0l46.876205-26.113685a4.280932 4.280932 0 0 0 2.354513-4.066885 4.280932 4.280932 0 0 0-2.354513-3.852839l-78.341055-44.949786a4.494979 4.494979 0 0 1-2.354513-4.066885v-27.826058a4.494979 4.494979 0 0 1 2.354513-4.066886l24.401312-13.913028a4.923072 4.923072 0 0 1 2.354513 0 4.280932 4.280932 0 0 1 2.354512 0l24.615359 13.913028a4.494979 4.494979 0 0 1 2.354513 4.066886v21.40466a4.923072 4.923072 0 0 0 2.354512 4.066885 4.709025 4.709025 0 0 0 4.709026 0z" fill="#333333" p-id="33112"></path><path d="M830.824188 470.902518H833.606793l14.983262 8.561864a2.140466 2.140466 0 0 1 0 1.712373v17.123728a2.140466 2.140466 0 0 1 0 1.712372l-14.983262 8.561864-14.983262-8.561864a2.140466 2.140466 0 0 1 0-1.712372v-17.123728a2.140466 2.140466 0 0 1 0-1.712373z" fill="#539E43" p-id="33113"></path><path d="M492.844608 537.256964v-1.070233V445.645019a8.989957 8.989957 0 0 0-2.56856-5.993305l-1.926419-1.926419-34.889596-19.906334-42.809319-24.615359H405.513595a8.775911 8.775911 0 0 0-4.494978 1.070233l-77.056776 44.307646a9.204004 9.204004 0 0 0-4.709025 8.133771V535.116498a8.347817 8.347817 0 0 0 2.140466 5.351165 6.207351 6.207351 0 0 0 2.568559 2.140466l77.698915 44.735739a7.705678 7.705678 0 0 0 5.779259 0l1.284279 2.782606 85.61864-49.658811v-1.28428z" fill="#539E43" p-id="33114"></path></svg>