<?xml version="1.0" standalone="no"?><!DOCTYPE svg PUBLIC "-//W3C//DTD SVG 1.1//EN" "http://www.w3.org/Graphics/SVG/1.1/DTD/svg11.dtd"><svg t="1701148633854" class="icon" viewBox="0 0 1024 1024" version="1.1" xmlns="http://www.w3.org/2000/svg" p-id="23130" xmlns:xlink="http://www.w3.org/1999/xlink" width="200" height="200"><path d="M512 0a512 512 0 1 1 0 1024A512 512 0 0 1 512 0z m19.2 258.112c-6.4 5.568-12.8 11.392-18.752 17.28a449.664 449.664 0 0 0-12.416-11.52c-68.288-60.672-136.704-86.144-177.6-62.272-39.36 22.784-51.008 90.432-34.56 175.04 1.664 8.384 3.456 16.64 5.568 25.024a433.728 433.728 0 0 0-27.904 8.896C185.472 438.272 128 482.112 128 527.36c0 46.848 61.184 93.76 144.448 122.24 6.784 2.304 13.504 4.48 20.416 6.464-2.24 8.96-4.224 17.92-6.016 27.008-15.744 83.264-3.456 149.248 35.84 171.904 40.512 23.424 108.608-0.64 174.912-58.624a462.72 462.72 0 0 0 15.744-14.592c6.592 6.464 13.504 12.608 20.416 18.624 64.192 55.232 127.616 77.568 166.784 54.912 40.512-23.424 53.76-94.336 36.608-180.736a636.8 636.8 0 0 0-4.48-20.288c4.8-1.28 9.408-2.816 14.08-4.352C833.28 621.312 896 574.912 896 527.36c0-45.44-59.072-89.536-140.672-117.568a752.96 752.96 0 0 0-24.32-7.68c1.344-5.504 2.56-11.072 3.712-16.64 18.496-89.408 6.336-161.28-34.56-184.96-39.488-22.656-103.872 0.896-168.96 57.6z m170.24 404.544c1.472 6.08 2.816 12.16 4.032 18.304 7.36 32.448 8.576 66.176 3.84 99.456a66.688 66.688 0 0 1-24.832 46.976c-23.808 13.76-74.688-4.224-129.6-51.328a646.4 646.4 0 0 1-19.008-17.28c22.912-25.28 44.032-52.096 63.296-80.384a739.328 739.328 0 0 0 102.272-15.744z m-377.216 1.088c33.6 7.168 67.456 12.16 101.824 14.72 19.84 28.032 41.6 54.848 64.832 80.064a385.28 385.28 0 0 1-14.4 13.376 274.56 274.56 0 0 1-84.608 52.928c-16.64 7.936-35.84 8.704-52.992 1.92-23.808-13.76-33.728-66.752-20.224-137.984 1.664-8.384 3.456-16.768 5.568-25.024z m233.408 17.088c-13.824 19.072-28.672 37.184-44.416 54.592-15.36-16.512-30.592-34.816-45.44-54.4a1067.2 1067.2 0 0 0 89.856-0.192zM512 406.272c23.424 0 46.528 0.96 68.864 2.56a1046.08 1046.08 0 0 1 68.992 118.72 994.752 994.752 0 0 1-68.736 119.68c-22.336 1.664-45.568 2.432-69.12 2.432-23.552 0-46.336-0.768-68.416-2.112a911.296 911.296 0 0 1-69.12-119.424 944.384 944.384 0 0 1 68.672-119.232c22.912-1.728 45.888-2.56 68.864-2.56zM357.376 566.144a990.464 990.464 0 0 0 45.12 78.016c-23.36-2.56-46.592-6.336-69.568-11.264 6.592-21.632 14.848-43.968 24.448-66.752z m309.888-1.216c9.6 21.76 18.048 43.904 25.344 66.496-23.232 5.248-46.784 9.28-70.528 11.968a1006.72 1006.72 0 0 0 45.184-78.464zM302.016 432.704c10.24 32.64 22.4 64.448 36.736 95.424-14.4 31.424-26.88 63.744-37.184 96.768a381.44 381.44 0 0 1-18.56-5.888c-32-10.048-68.288-25.92-94.528-46.72a67.328 67.328 0 0 1-28.224-44.928c0-27.456 47.36-62.528 115.84-86.4 8.512-3.008 17.216-5.696 25.92-8.256z m420.288 0.32c7.808 2.24 15.296 4.672 22.528 7.04 69.888 24 118.912 59.712 118.912 87.04 0 29.376-52.352 67.328-127.168 92.096a313.728 313.728 0 0 1-12.8 3.84 762.24 762.24 0 0 0-38.208-95.68c14.4-30.592 26.56-62.08 36.736-94.336zM512 459.264a68.672 68.672 0 1 0 0 137.408 68.672 68.672 0 0 0 0-137.408z m-110.272-46.208c-7.936 12.48-15.744 25.216-23.04 38.144-7.36 12.736-14.592 25.792-21.312 39.04-9.472-22.4-17.408-44.288-24-65.472 21.568-4.8 44.544-8.704 68.352-11.712z m220.544 0c24.128 3.008 47.232 7.04 68.8 12.032-6.848 22.208-14.976 43.776-24.128 65.088a1250.56 1250.56 0 0 0-21.76-39.296c-7.36-12.8-14.976-25.344-22.912-37.76z m61.632-184.64c25.344 14.592 35.072 73.344 19.2 150.592-1.024 5.12-2.112 10.048-3.456 15.04a767.936 767.936 0 0 0-100.928-15.936 758.336 758.336 0 0 0-63.936-79.616c5.888-5.568 11.52-10.816 17.6-16.064 55.744-48.64 107.84-67.648 131.52-54.016z m-205.44 59.52c3.712 3.328 7.424 6.912 11.328 10.56-23.232 25.024-44.672 51.712-64.32 79.616-33.92 3.008-67.52 8.32-100.8 15.616-1.92-7.68-3.648-15.424-5.248-23.232-14.08-72.64-4.8-127.36 18.88-140.992 25.216-14.72 81.152 6.272 140.16 58.496z m33.856 33.472c15.744 17.152 30.528 35.072 44.352 53.76-29.696-1.408-59.52-1.408-89.216 0 14.08-18.56 29.056-36.48 44.8-53.76z" fill="#00C2D3" p-id="23131"></path></svg>