<?xml version="1.0" standalone="no"?><!DOCTYPE svg PUBLIC "-//W3C//DTD SVG 1.1//EN" "http://www.w3.org/Graphics/SVG/1.1/DTD/svg11.dtd"><svg t="1701148465708" class="icon" viewBox="0 0 1024 1024" version="1.1" xmlns="http://www.w3.org/2000/svg" p-id="11022" xmlns:xlink="http://www.w3.org/1999/xlink" width="200" height="200"><path d="M908.8 137.6c43.2 0 78.4 35.2 78.4 78.4v454.4c0 43.2-35.2 83.2-78.4 83.2H648v41.6l76.8 64c14.4 11.2 19.2 32 12.8 48-6.4 17.6-22.4 30.4-40 30.4H328c-17.6 0-33.6-14.4-38.4-30.4-6.4-17.6 0-36.8 14.4-49.6l78.4-62.4v-41.6H120c-43.2 0-78.4-40-78.4-83.2V216c0-43.2 35.2-78.4 78.4-78.4h788.8z m-320 705.6c-8-6.4-12.8-19.2-12.8-30.4v-59.2h-123.2v59.2c0 11.2-6.4 24-14.4 30.4l-27.2 22.4h201.6l-24-22.4z m-464-172.8h779.2V219.2H124.8v451.2z" fill="#1296db" p-id="11023"></path><path d="M308.8 385.6l24 89.6 24-89.6h25.6l24 89.6 24-89.6h30.4l-41.6 121.6h-25.6l-24-89.6-24 89.6H320l-41.6-121.6h30.4zM574.4 401.6c9.6 12.8 14.4 28.8 14.4 51.2h-91.2c1.6 11.2 4.8 20.8 9.6 25.6 4.8 6.4 12.8 9.6 22.4 9.6 8 0 14.4-1.6 20.8-6.4 4.8-3.2 8-8 11.2-14.4h27.2c-3.2 11.2-8 20.8-17.6 28.8-11.2 9.6-24 14.4-40 14.4-17.6 0-32-6.4-43.2-16-11.2-11.2-17.6-27.2-17.6-48 0-17.6 4.8-33.6 16-46.4 9.6-12.8 25.6-19.2 43.2-19.2 17.6 1.6 33.6 8 44.8 20.8z m-67.2 9.6c-4.8 4.8-8 12.8-9.6 22.4H560c-1.6-19.2-12.8-28.8-32-28.8-8-1.6-16 1.6-20.8 6.4zM636.8 334.4v67.2c9.6-12.8 22.4-20.8 36.8-20.8 17.6 0 30.4 6.4 41.6 19.2 9.6 11.2 14.4 27.2 14.4 44.8 0 19.2-4.8 33.6-14.4 46.4-11.2 12.8-24 19.2-43.2 19.2-16 0-28.8-4.8-36.8-16v12.8h-25.6V334.4h27.2z m8 80c-6.4 8-9.6 17.6-9.6 30.4v1.6c0 11.2 1.6 22.4 8 28.8 6.4 8 14.4 12.8 24 12.8 11.2 0 20.8-4.8 25.6-12.8 4.8-6.4 6.4-17.6 6.4-30.4s-3.2-22.4-8-30.4c-6.4-8-14.4-12.8-27.2-12.8-6.4 1.6-12.8 4.8-19.2 12.8z" fill="#1296db" p-id="11024"></path></svg>